<svg width="1920" height="1280" viewBox="0 0 1920 1280" fill="none" xmlns="http://www.w3.org/2000/svg">
<rect width="1920" height="1280" fill="#040B14"/>
<path d="M936.5 1065.5C1262.5 1408.27 1920 692.534 1920 454.5C1920 216.466 1920 1280 1920 1280H0C0 1280 610.5 722.732 936.5 1065.5Z" fill="#149DDD" fill-opacity="0.8"/>
<path d="M696.5 889.5C1022.5 1232.27 1920 692.534 1920 454.5C1920 216.466 1920 1280 1920 1280H0C0 1280 370.5 546.732 696.5 889.5Z" fill="#149DDD" fill-opacity="0.23"/>
<path d="M1062.5 882.026C1388.5 1209.35 1920 583.024 1920 355.712C1920 128.4 1920 1280 1920 1280H0C0 1280 736.5 554.698 1062.5 882.026Z" fill="#149DDD" fill-opacity="0.44"/>
<path d="M637 0H1920V285.5C1920 285.5 1721.5 146.141 1391 435.5C1206.55 596.99 637 0 637 0Z" fill="#149DDD" fill-opacity="0.71"/>
<path d="M501 0H1920V449.309C1920 449.309 1322 226 1034 423.5C685.531 662.468 501 0 501 0Z" fill="#149DDD" fill-opacity="0.28"/>
</svg>
