<svg width="1920" height="1280" viewBox="0 0 1920 1280" fill="none" xmlns="http://www.w3.org/2000/svg">
<rect x="3.57628e-07" width="1920" height="1280" fill="#040B14"/>
<path d="M865.5 805C1105 1300 1920 785.718 1920 439C1920 92.2822 1920 1280 1920 1280H3.57628e-07C3.57628e-07 1280 626 310 865.5 805Z" fill="#149DDD" fill-opacity="0.8"/>
<path d="M545.5 775C1012.5 1192 1920 586.156 1920 305.018C1920 23.881 1920 1280 1920 1280H3.57628e-07C3.57628e-07 1280 78.5 358 545.5 775Z" fill="#149DDD" fill-opacity="0.23"/>
<path d="M976 805C1342 961.5 1920 583.024 1920 355.712C1920 128.4 1920 1280 1920 1280H3.57628e-07C3.57628e-07 1280 610 648.5 976 805Z" fill="#149DDD" fill-opacity="0.44"/>
<path d="M637 0H1920V220.652C1920 220.652 1542.73 75.2888 1220 310C950.5 506 637 0 637 0Z" fill="#149DDD" fill-opacity="0.71"/>
<path d="M501 0H1920V308.055C1920 308.055 1322 154.95 1034 290.36C685.531 454.201 501 0 501 0Z" fill="#149DDD" fill-opacity="0.28"/>
</svg>
