<svg width="1913" height="1259" viewBox="0 0 1913 1259" fill="none" xmlns="http://www.w3.org/2000/svg">
<path d="M749.108 873.365C1608.3 1164.54 1907.04 1258.31 1907.04 572.995C1907.04 -112.315 1907.04 966.299 1907.04 966.299V1258.31H5.15574C5.15574 1258.31 -110.086 582.189 749.108 873.365Z" fill="#179EC9" fill-opacity="0.22"/>
<rect y="8" width="1908.74" height="1250.19" fill="#040B14"/>
<path d="M980.5 854C1696.5 987.5 1912.02 1258.01 1912.02 469.038C1912.02 -319.929 1912.02 921.831 1912.02 921.831V1258H5.99066C5.99066 1258 264.5 720.5 980.5 854Z" fill="#179EC9" fill-opacity="0.71"/>
<path d="M745.573 849.739C1395.96 1060.93 1906.03 475.143 1906.03 475.143V945.692V1247.19H0C0 1247.19 95.1819 638.552 745.573 849.739Z" fill="#179EC9" fill-opacity="0.34"/>
<path d="M1693.33 399.348C1463.65 552.747 1214.84 107.885 991.811 294.48C768.778 481.075 346.46 7.77711 346.46 7.77711L1172 7.7771L1909.7 9.52716C1909.7 9.52716 1923.01 245.949 1693.33 399.348Z" fill="#179EC9" fill-opacity="0.67"/>
<path d="M1695.67 443.707C1475 267 1579.5 179 947.153 408.784C314.805 638.567 302.001 7.81289 302.001 7.81289L1129.2 10.3184L1879.97 6.63839C1879.97 6.63839 1916.34 620.414 1695.67 443.707Z" fill="#179EC9" fill-opacity="0.47"/>
</svg>
