<svg width="1922" height="1292" viewBox="0 0 1922 1292" fill="none" xmlns="http://www.w3.org/2000/svg">
<path d="M754.238 897.882C1618.5 1196 1919 1292 1919 590.351C1919 -111.299 1919 993.031 1919 993.031V1292H5.89694C5.89694 1292 -110.024 599.764 754.238 897.882Z" fill="#179EC9" fill-opacity="0.22"/>
<rect x="2" y="12" width="1920" height="1280" fill="#040B14"/>
<path d="M751.865 848.513C1296 881.518 1919 1195 1919 578.149C1919 -38.7026 1919 932.163 1919 932.163V1195H2C2 1195 207.73 815.508 751.865 848.513Z" fill="#179EC9" fill-opacity="0.71"/>
<path d="M750.865 815.672C1405 1020.42 1918 452.5 1918 452.5V908.699V1201H1C1 1201 96.7298 610.926 750.865 815.672Z" fill="#179EC9" fill-opacity="0.34"/>
<path d="M1701.41 408.843C1470.37 565.9 1220.1 110.431 995.754 301.475C771.405 492.518 346.595 7.93639 346.595 7.93639L1183.07 13.4L1919.06 9.72816C1919.06 9.72816 1932.44 251.787 1701.41 408.843Z" fill="#179EC9" fill-opacity="0.67"/>
<path d="M1729.65 456.005C1502.8 469.173 1492 179.5 986.201 420.202C480.403 660.905 345.393 9.63114 345.393 9.63114L1166.99 12.2487L1912.68 8.5284C1912.68 8.5284 1956.5 442.837 1729.65 456.005Z" fill="#179EC9" fill-opacity="0.47"/>
</svg>
