<svg width="1927" height="1282" viewBox="0 0 1927 1282" fill="none" xmlns="http://www.w3.org/2000/svg">
<path d="M750.276 889.905C1610.81 1185.97 1910.01 1281.31 1910.01 584.495C1910.01 -112.316 1910.01 984.399 1910.01 984.399V1281.31H5.16378C5.16378 1281.31 -110.257 593.843 750.276 889.905Z" fill="#179EC9" fill-opacity="0.22"/>
<rect x="1.28366" y="10.1328" width="1911.72" height="1271.17" fill="#040B14"/>
<path d="M752.735 830.399C1294.6 873.321 1915 1281 1915 478.793C1915 -323.414 1915 939.184 1915 939.184V1281H6C6 1281 210.871 787.476 752.735 830.399Z" fill="#179EC9" fill-opacity="0.71"/>
<path d="M746.736 865.882C1398.14 1080.61 1909 485 1909 485V963.445V1270H0C0 1270 95.3303 651.151 746.736 865.882Z" fill="#179EC9" fill-opacity="0.34"/>
<path d="M1695.97 407.933C1465.93 563.907 1216.74 111.579 993.358 301.305C769.977 491.032 347 9.79125 347 9.79125L1179.86 15.2172L1912.68 11.5707C1912.68 11.5707 1926.01 251.96 1695.97 407.933Z" fill="#179EC9" fill-opacity="0.67"/>
<path d="M1739.28 451.076C1513.41 464.153 1502.66 176.477 999.044 415.52C495.428 654.562 361 7.78001 361 7.78001L1179.05 10.3795L1921.52 6.68488C1921.52 6.68488 1965.16 437.999 1739.28 451.076Z" fill="#179EC9" fill-opacity="0.47"/>
</svg>
